<?xml version="1.0" encoding="UTF-8" standalone="no"?>
<svg
   xmlns:dc="http://purl.org/dc/elements/1.1/"
   xmlns:cc="http://creativecommons.org/ns#"
   xmlns:rdf="http://www.w3.org/1999/02/22-rdf-syntax-ns#"
   xmlns:svg="http://www.w3.org/2000/svg"
   xmlns="http://www.w3.org/2000/svg"
   xmlns:sodipodi="http://sodipodi.sourceforge.net/DTD/sodipodi-0.dtd"
   xmlns:inkscape="http://www.inkscape.org/namespaces/inkscape"
   version="1.0"
   width="359.000000pt"
   height="140.000000pt"
   viewBox="0 0 359.000000 140.000000"
   preserveAspectRatio="xMidYMid meet"
   id="svg16"
   sodipodi:docname="esfot_letras.svg"
   inkscape:version="1.0.1 (3bc2e813f5, 2020-09-07)">
  <defs
     id="defs20" />
  <sodipodi:namedview
     pagecolor="#ffffff"
     bordercolor="#666666"
     borderopacity="1"
     objecttolerance="10"
     gridtolerance="10"
     guidetolerance="10"
     inkscape:pageopacity="0"
     inkscape:pageshadow="2"
     inkscape:window-width="1600"
     inkscape:window-height="837"
     id="namedview18"
     showgrid="false"
     inkscape:zoom="1.9780299"
     inkscape:cx="359.53624"
     inkscape:cy="144.90244"
     inkscape:window-x="-8"
     inkscape:window-y="-8"
     inkscape:window-maximized="1"
     inkscape:current-layer="g63" />
  <metadata
     id="metadata2">
Created by potrace 1.16, written by Peter Selinger 2001-2019
<rdf:RDF>
  <cc:Work
     rdf:about="">
    <dc:format>image/svg+xml</dc:format>
    <dc:type
       rdf:resource="http://purl.org/dc/dcmitype/StillImage" />
  </cc:Work>
</rdf:RDF>
</metadata>
  <g
     transform="translate(0.000000,140.000000) scale(0.100000,-0.100000)"
     fill="#000000"
     stroke="none"
     id="g14">
    <g
       id="g63"
       transform="translate(-2.437716e-6,-2.6883481)">
      <path
         d="M 60,700 V 90 h 240 240 v 95 95 H 400 260 v 160 159 l 118,3 117,3 3,98 3,97 H 380 260 v 160 160 h 140 140 v 95 95 H 300 60 Z"
         id="path8"
         style="fill:#ff0000" />
      <path
         style="fill:#ff0000;stroke-width:0.470665"
         d="m 130.86329,176.14819 c -7.58504,-1.18787 -13.16177,-3.88574 -17.90396,-8.66143 -3.93141,-3.95919 -6.56875,-8.82361 -7.28546,-13.4376 -0.26136,-1.68262 -0.69606,-10.13472 -0.96599,-18.78243 -0.26993,-8.6477 -0.60124,-15.90183 -0.73625,-16.12029 -0.13501,-0.21845 5.80331,-0.39718 13.19627,-0.39718 h 13.44174 v 11.90308 c 0,13.13838 0.47504,16.5289 2.61865,18.69017 1.04198,1.05056 1.62439,1.19446 5.43427,1.34271 4.10798,0.15984 4.3171,0.11824 5.60426,-1.11494 2.12858,-2.0393 2.57737,-4.83488 2.5678,-15.99506 -0.0147,-17.13993 -1.36705,-19.59909 -19.28431,-35.067161 -16.92219,-14.60902 -20.91312,-20.534212 -22.41642,-33.280893 -0.65658,-5.567251 -0.27992,-29.67757 0.52783,-33.786327 1.46138,-7.433594 9.48714,-16.789296 16.72608,-19.497729 5.44123,-2.0358247 22.97766,-2.4718061 29.59877,-0.735869 4.25114,1.11457 8.09898,3.408556 11.82229,7.048155 4.18904,4.094838 6.54434,7.634344 7.52125,11.302782 0.65153,2.446618 1.36999,18.797054 1.61834,36.829564 l 0.0211,1.529662 h -12.70797 c -11.7844,0 -12.70885,-0.05986 -12.72016,-0.823664 -0.007,-0.453016 -0.21333,-6.483693 -0.45914,-13.401502 -0.48056,-13.523859 -0.68895,-14.655004 -3.11835,-16.926471 -3.72578,-3.483568 -8.46998,-2.895128 -11.8246,1.466647 l -1.52966,1.988913 0.0145,7.611722 c 0.0337,17.644398 1.27124,19.925972 18.81208,34.682126 14.27582,12.009469 19.51323,18.447315 22.00913,27.053685 0.91202,3.14487 1.3855,33.7512 0.64806,41.89164 -0.46312,5.11222 -0.69043,6.01001 -2.39621,9.46431 -3.41972,6.9251 -10.03645,11.88908 -19.08432,14.31734 -4.3111,1.15702 -15.01229,1.64795 -19.74962,0.90604 z"
         id="path32"
         transform="matrix(7.5,0,0,-7.5,0,1400)" />
      <path
         style="fill:#ff0000;stroke-width:0.470665"
         d="M 211.09341,93.333333 V 12.378892 h 31.76991 31.76992 V 24.851524 37.324156 H 255.80662 236.98001 V 58.73943 80.154703 l 16.12028,-4.7e-4 16.12029,-4.71e-4 -0.3861,12.583478 c -0.26937,8.77898 -0.55398,12.69024 -0.94133,12.93658 -0.30538,0.19421 -3.22161,0.35636 -6.48052,0.36032 -3.25892,0.004 -10.08945,0.14667 -15.17896,0.31712 l -9.25366,0.30987 v 33.81332 33.81332 h -12.9433 -12.9433 z"
         id="path34"
         transform="matrix(7.5,0,0,-7.5,0,1400)" />
      <path
         style="fill:#ff0000;stroke-width:0.470665"
         d="m 333.24577,176.56121 c -7.42148,-0.84579 -15.18651,-4.2247 -19.48227,-8.47761 -5.00232,-4.95242 -6.55235,-8.49661 -7.27002,-16.6231 -0.75136,-8.50807 -0.74991,-111.519134 0.002,-118.234863 0.72668,-6.493326 2.22041,-9.32894 7.88519,-14.968815 6.98784,-6.95712 10.6305,-8.242163 23.30971,-8.2231 10.06718,0.01514 17.36866,1.191603 22.60428,3.642163 3.49518,1.63594 8.38713,6.634967 10.2956,10.520942 3.50892,7.144761 3.91894,16.782543 3.53201,83.021133 l -0.79423,22.26656 -0.96763,23.22464 c -0.54415,13.06043 -14.43616,22.58917 -27.12704,23.91808 -5.12404,0.53656 -6.77972,0.52744 -11.98727,-0.066 z m 10.76578,-26.34258 c 1.43543,-0.65403 2.41407,-2.61937 3.14522,-6.31638 0.39169,-1.9806 0.61222,-16.23236 0.75594,-48.852974 0.19919,-45.211119 0.008,-53.566946 -1.29107,-56.413756 -0.81995,-1.796897 -3.82652,-3.73717 -6.20224,-4.002572 -2.7934,-0.312061 -6.41866,2.057467 -7.35785,4.809202 -1.86664,5.469039 -1.70065,104.35631 0.18311,109.09091 0.18335,0.46082 0.8907,1.1407 1.57188,1.51081 1.50752,0.81911 7.52962,0.93356 9.19501,0.17476 z"
         id="path36"
         transform="matrix(7.5,0,0,-7.5,0,1400)"
         sodipodi:nodetypes="ssscssssscsssssssssssss" />
      <path
         style="fill:#ff0000;stroke-width:0.470665"
         d="M 427.12881,105.80597 V 37.324156 H 416.30351 405.4782 V 24.851524 12.378892 h 34.59391 34.5939 v 12.472632 12.472632 h -10.8253 -10.82531 v 68.481814 68.4818 h -12.94329 -12.9433 z"
         id="path38"
         transform="matrix(7.5,0,0,-7.5,0,1400)" />
    </g>
  </g>
</svg>
