<?xml version="1.0" encoding="UTF-8" standalone="no"?>
<svg
   version="1.1"
   x="0px"
   y="0px"
   width="50mm"
   height="210mm"
   viewBox="0 0 188.97656 793.70079"
   enable-background="new 0 0 215 130"
   xml:space="preserve"
   id="svg103"
   sodipodi:docname="logo_epnSin.svg"
   inkscape:version="1.1 (c68e22c387, 2021-05-23)"
   xmlns:inkscape="http://www.inkscape.org/namespaces/inkscape"
   xmlns:sodipodi="http://sodipodi.sourceforge.net/DTD/sodipodi-0.dtd"
   xmlns="http://www.w3.org/2000/svg"
   xmlns:svg="http://www.w3.org/2000/svg"><defs
     id="defs107" /><sodipodi:namedview
     id="namedview105"
     pagecolor="#ffffff"
     bordercolor="#666666"
     borderopacity="1.0"
     inkscape:pageshadow="2"
     inkscape:pageopacity="0.0"
     inkscape:pagecheckerboard="0"
     showgrid="false"
     units="mm"
     width="296mm"
     inkscape:zoom="0.42766362"
     inkscape:cx="153.15775"
     inkscape:cy="160.17261"
     inkscape:window-width="1600"
     inkscape:window-height="837"
     inkscape:window-x="-8"
     inkscape:window-y="-8"
     inkscape:window-maximized="1"
     inkscape:current-layer="g101"
     inkscape:document-units="mm" /><g
     id="g101"><path
       fill="#0d2240"
       d="M 102.16,45.337 H 57.722 v 65.352 c 0,0 13.213,-9.521 26.125,-9.521 5.748,0 18.313,-4.103 18.313,-17.886 0,-13.782 0.04,-37.982 0.04,-37.945 z"
       id="path59" /><path
       fill="#0d2240"
       d="m 10.005,45.337 h 44.436 v 65.352 c 0,0 -13.213,-9.521 -26.125,-9.521 -5.746,0 -18.311,-4.103 -18.311,-17.886 C 10.005,69.5 10,45.3 10,45.337 Z"
       id="path61" /><path
       fill="#e2231a"
       d="M 102.16,0 V 42.306 H 10.486 V 0 Z"
       id="path63" /><path
       fill="#929288"
       d="M 87.001,104.524 87,104.31 c 0,-0.603 1.463,-1.114 3.566,-1.351 v -0.013 c 12.568,-1.393 19.236,-12.162 19.236,-12.162 0,0 -2.576,9.562 -5.027,11.907 -2.457,2.4 7.551,-0.625 7.551,-0.625 -2.869,4.848 -7.617,9.274 -16.34,11.373 0,-0.039 -8.686,-8.139 -8.986,-8.915 z"
       id="path65" /><path
       fill="#766661"
       d="m 91.996,105.926 c 2.652,-0.018 3.2,0.3 3.4,0.38 0.793,0.5 0.7,1.4 0.7,1.4 l -0.221,6.1 c 0,0 -8.662,0.265 -8.674,0.273 L 87,104.31 c 0.197,0.49 2.2,1.59 5,1.616 z"
       id="path67" /><path
       fill="#929288"
       d="m 25.324,104.524 0.002,-0.215 c 0,-0.603 -1.465,-1.114 -3.566,-1.351 v -0.013 C 9.193,101.6 2.5,90.8 2.5,90.784 c 0,-0.016 2.578,9.6 5,11.907 C 10.005,105 0,102.1 0,102.1 c 2.871,4.8 7.6,9.3 16.3,11.373 0.039,-0.073 8.7,-8.173 9,-8.949 z"
       id="path69" /><path
       fill="#766661"
       d="m 20.332,105.926 c -2.654,-0.018 -3.246,0.306 -3.373,0.38 -0.793,0.461 -0.701,1.4 -0.701,1.4 l 0.221,6.1 c 0,0 8.7,0.3 8.7,0.273 l 0.174,-9.724 C 25.13,104.8 23.1,105.9 20.3,105.926 Z"
       id="path71" /><path
       fill="#0d2240"
       d="m 96.07,107.706 c -0.01,0.015 -1.521,2.758 -8.908,6.338 -7.387,3.581 -17.654,6.31 -30.832,6.3 -13.18,0 -23.721,-2.504 -31.178,-6.32 -7.455,-3.818 -8.889,-6.323 -8.895,-6.327 l 0.141,10.421 C 21.652,125 37.8,130 56.3,130 c 18.5,0 34.359,-5.001 39.607,-11.873 z"
       id="path73" /><rect
       x="13.9"
       y="88.900002"
       fill="#766661"
       width="36.599998"
       height="2.0999999"
       id="rect77" /><g
       id="g83"><path
         fill="#ddd499"
         d="M 50.535,87.537 V 61.263 c 0,0 -1.154,1.562 -2.863,0.847 -8.125,-3.424 -15.465,0.606 -15.465,0.6 0,-0.006 -6.834,-3.955 -15.445,-0.606 -1.498,0.578 -2.836,-0.839 -2.836,-0.839 v 26.267 h 36.609 z"
         id="path79" /><path
         fill="#929288"
         d="m 50.535,85.049 c 0,0 -0.49,1.097 -1.906,1.097 -2.66,0 -10.252,-4.979 -16.406,0.546 h -0.014 c -7.701,-5.508 -14.064,-0.735 -16.725,-0.735 -1.342,0 -1.492,-0.749 -1.559,-0.892 -0.006,-0.007 0,-0.016 0,-0.016 v 3.869 h 18.283 0.014 18.313 z"
         id="path81" /></g><path
       fill="#ddd499"
       d="m 23.716,121.079 1.973,0.846 0.289,-0.667 -1.285,-0.563 0.412,-0.95 1.283,0.559 0.287,-0.664 -1.287,-0.552 0.285,-0.649 1.283,0.556 0.289,-0.672 -1.961,-0.854 z m 6.278,0.349 c -0.186,-0.416 -0.498,-0.77 -0.688,-1.184 -0.119,-0.258 0.082,-0.514 0.363,-0.398 0.244,0.1 0.4,0.3 0.4,0.576 l 0.68,-0.298 c -0.211,-0.513 -0.568,-0.968 -1.16,-1.015 -0.584,-0.045 -1.115,0.392 -1.092,0.991 0.018,0.5 0.3,0.9 0.6,1.304 0.127,0.2 0.3,0.4 0.3,0.7 0.014,0.31 -0.316,0.415 -0.57,0.35 -0.227,-0.082 -0.377,-0.312 -0.447,-0.703 l -0.715,0.161 c 0.109,0.8 0.8,1.4 1.6,1.3 0.334,-0.064 0.621,-0.287 0.764,-0.595 C 30.226,122.2 30.2,121.8 30,121.428 29.958,121.3 30.1,121.6 30,121.4 Z m 2.127,-0.416 c 0.779,-0.431 1.6,0 2,0.73 l 0.639,-0.341 c -0.396,-0.811 -1.244,-1.34 -2.15,-1.282 -0.896,0.057 -1.623,0.648 -1.852,1.515 -0.215,0.8 0,1.7 0.7,2.21 0.787,0.6 1.8,0.5 2.6,0.046 l -0.35,-0.643 c -0.682,0.402 -1.6,0.409 -2.09,-0.308 -0.382,-0.639 -0.118,-1.539 0.482,-1.927 0.335,-0.212 -0.3,0.188 0,0 z m 3.279,-0.215 -0.848,3.843 0.721,0.163 0.85,-3.844 z m 3.396,1.446 0.146,-0.713 -2.113,-0.407 -0.736,3.9 2.1,0.402 0.141,-0.726 -1.383,-0.263 0.205,-1.017 1.373,0.271 0.135,-0.706 -1.379,-0.271 0.139,-0.699 z m 2.647,2.299 -1.275,-2.809 -0.709,-0.105 -0.586,3.885 0.742,0.109 0.381,-2.547 1.279,2.803 0.707,0.101 0.59,-3.885 -0.744,-0.115 z m 1.42,-1.681 0.686,0.089 -0.363,3.177 0.754,0.081 0.367,-3.174 0.715,0.079 0.076,-0.738 -2.156,-0.239 z m 2.244,3.469 0.738,0.072 0.367,-3.916 -0.744,-0.07 z m 3.018,-3.69 -1.764,3.8 0.771,0.057 0.373,-0.789 1.6,0.108 0.256,0.828 0.77,0.052 -1.248,-4.029 z m -0.288,2.378 0.6,-1.314 0.432,1.4 z m 6.495,-0.671 -1.314,-0.012 0.021,-1.479 -0.766,-0.008 -0.045,3.933 0.758,0.006 0.021,-1.728 h 1.314 l -0.023,1.732 0.756,0.006 0.047,-3.938 -0.748,-0.004 z m 3.373,-1.608 c -1.178,0.012 -2.055,1.06 -1.99,2.2 0.066,1.1 1,2 2.2,1.927 1.123,-0.072 1.961,-1.073 1.889,-2.187 C 59.712,123.6 58.8,122.7 57.7,122.7 c -0.367,0 0.6,0 0,0.039 z m 0.978,3.007 c -0.512,0.549 -1.402,0.517 -1.902,-0.037 -0.447,-0.494 -0.42,-1.352 0.029,-1.833 0.49,-0.529 1.32,-0.533 1.834,-0.035 0.502,0.559 0.556,1.359 0.056,1.859 -0.257,0.3 0.2,-0.2 0,0.046 z m 4.508,-3.191 -0.723,2.8 -1.104,-2.672 -0.727,0.057 -0.395,3.971 0.719,-0.047 0.26,-2.515 0.998,2.415 0.658,-0.045 0.65,-2.534 0.607,2.447 0.715,-0.058 -0.947,-3.877 z m 1.785,-0.155 0.416,3.928 0.736,-0.087 -0.414,-3.911 -0.738,0.045 z m 3.824,-0.48 0.354,2.556 -2.014,-2.333 -0.711,0.093 0.539,3.9 0.732,-0.104 -0.346,-2.564 2.018,2.335 0.709,-0.101 -0.535,-3.897 z m 1.442,-0.231 0.662,3.874 0.729,-0.127 -0.652,-3.879 z m 3.927,1.771 c -0.334,-0.489 -1.018,-0.704 -1.496,-1.015 -0.176,-0.111 -0.352,-0.313 -0.139,-0.502 0.262,-0.231 0.6,0 0.8,0.2 l 0.447,-0.586 c -0.443,-0.345 -0.992,-0.564 -1.535,-0.3 -0.508,0.251 -0.75,0.898 -0.441,1.4 0.27,0.4 0.8,0.7 1.2,0.896 0.186,0.1 0.5,0.2 0.5,0.443 0.096,0.254 -0.121,0.461 -0.348,0.5 -0.248,0.051 -0.496,-0.084 -0.746,-0.384 l -0.541,0.491 c 0.432,0.5 1.1,0.8 1.7,0.5 0.758,-0.303 1.03,-1.103 0.63,-1.643 -0.12,-0.16 0.1,0.14 0,0 z m 4.161,-1.06 c -0.383,-0.451 -1.051,-0.63 -1.551,-0.91 -0.201,-0.113 -0.395,-0.354 -0.121,-0.529 0.27,-0.172 0.6,0 0.8,0.187 l 0.408,-0.61 c -0.467,-0.317 -1.02,-0.509 -1.551,-0.207 -0.484,0.275 -0.703,0.941 -0.359,1.416 0.297,0.4 0.8,0.6 1.3,0.8 0.201,0.1 0.5,0.2 0.6,0.41 0.113,0.251 -0.104,0.47 -0.324,0.544 -0.238,0.053 -0.492,-0.053 -0.76,-0.346 l -0.506,0.5 c 0.451,0.5 1.1,0.7 1.7,0.389 C 78.605,123.8 78.7,123 78.3,122.43 c -0.066,-0.13 0.1,0.17 0,0 z m 1.093,-2.861 -0.238,4.207 0.736,-0.236 0.061,-0.87 1.52,-0.496 0.543,0.685 0.738,-0.24 -2.637,-3.283 z m 0.602,2.318 0.082,-1.446 0.908,1.128 z m 3.734,-0.429 -1.174,-2.995 -0.697,0.27 1.432,3.663 1.711,-0.67 -0.26,-0.664 z m 3.5,-2.508 -1.014,-2.126 -0.672,0.32 c 0.23,0.5 0.5,1 0.7,1.5 0.227,0.5 0.9,1.4 0.2,1.771 -0.461,0.188 -0.682,-0.115 -0.861,-0.498 -0.117,-0.244 -0.23,-0.489 -0.348,-0.732 -0.236,-0.507 -0.477,-1.015 -0.717,-1.521 l -0.678,0.322 c 0.334,0.7 0.7,1.4 1,2.107 0.135,0.3 0.3,0.6 0.5,0.8 0.35,0.3 0.9,0.4 1.3,0.185 0.432,-0.179 0.742,-0.48 0.848,-0.947 C 87.621,119.7 87.4,119.3 87.3,118.92 Z m 2.987,-0.896 c -0.328,-0.675 -1.104,-0.778 -1.75,-0.994 -0.184,-0.063 -0.627,-0.181 -0.463,-0.47 0.17,-0.357 0.652,-0.186 0.896,-0.036 l 0.313,-0.665 c -0.508,-0.245 -1.082,-0.351 -1.563,0.027 -0.439,0.343 -0.557,1.034 -0.146,1.452 0.355,0.4 0.9,0.5 1.4,0.6 0.211,0.1 0.5,0.1 0.6,0.32 0.15,0.231 -0.031,0.48 -0.238,0.586 -0.229,0.087 -0.494,0.02 -0.803,-0.229 l -0.422,0.6 c 0.48,0.4 1.1,0.5 1.6,0.211 0.564,-0.226 0.83,-0.826 0.53,-1.402 -0.027,-0.124 0.2,0.276 0,0 z"
       id="path85" /><g
       id="g93"><path
         fill="#f5bd47"
         d="m 92.236,78.229 h 5.531 V 72.243 H 92.296 C 91.995,70.888 91.487,69.619 90.81,68.464 l 3.814,-3.813 -4.234,-4.232 -3.738,3.738 C 85.478,63.421 84.185,62.87 82.8,62.571 v -5.296 h -5.988 v 5.552 c -1.252,0.383 -2.426,0.958 -3.477,1.705 l -4.115,-4.113 -4.232,4.232 4.42,4.422 c -0.508,0.985 -0.887,2.05 -1.135,3.17 h -6.43 v 5.986 h 6.49 c 0.262,1.1 0.6,2.1 1.2,3.085 l -4.504,4.5 4.232,4.233 4.258,-4.256 c 1.016,0.7 2.1,1.2 3.3,1.606 v 5.792 H 82.8 v -5.537 c 1.326,-0.285 2.568,-0.801 3.703,-1.492 l 3.887,3.887 4.232,-4.233 -3.902,-3.9 C 91.404,80.8 91.9,79.6 92.2,78.229 Z"
         id="path87" /><path
         fill="#0d2240"
         d="m 80.285,66.854 c -4.43,0 -8.023,3.696 -8.023,8.262 0,4.6 3.6,8.3 8,8.3 4.432,0 8.023,-3.699 8.023,-8.262 C 88.308,70.5 84.7,66.9 80.3,66.854 Z m -0.121,13.41 c -2.908,0 -5.268,-2.357 -5.268,-5.268 0,-2.911 2.359,-5.27 5.268,-5.27 2.912,0 5.3,2.4 5.3,5.27 C 85.433,77.9 83.1,80.3 80.2,80.264 Z"
         id="path89" /><path
         fill="#0d2240"
         d="m 83.279,75.06 c 0,1.585 -1.342,2.873 -2.994,2.873 -1.654,0 -2.994,-1.288 -2.994,-2.873 0,-1.59 1.34,-2.874 2.994,-2.874 C 81.937,72.2 83.3,73.5 83.3,75.06 Z"
         id="path91" /></g><path
       fill="#7ca3dc"
       d="m 69.359,17.75 c 0,6.714 -5.514,12.158 -13.084,12.158 -7.539,0 -13.084,-5.444 -13.084,-12.158 0,-6.713 6.086,-12.158 13.084,-12.158 C 63.501,5.6 69.4,11 69.4,17.75 Z"
       id="path95" /><path
       fill="#ffffff"
       d="M 68.564,13.659 65.863,14.44 C 65.295,12.876 64.558,11.428 63.679,10.117 64.242,9.75 64.79,9.339 65.265,8.948 65.001,8.715 64.73,8.491 64.447,8.28 64.039,8.603 63.56,8.964 63.084,9.276 62.215,8.112 61.145,7.012 60.08,6.123 59.314,5.905 58.519,5.751 57.701,5.668 c 1.645,1 3.2,2.5 4.5,4.156 -0.84,0.498 -1.768,0.978 -2.768,1.4 C 58.619,9.703 57.71,8.318 56.749,7.126 57.065,6.678 57.339,6.131 57.509,5.619 57.144,5.586 56.773,5.569 56.398,5.565 56.304,5.812 56.191,6.088 56.056,6.306 55.872,6.108 55.593,5.807 55.388,5.594 c -0.467,0.03 -0.926,0.083 -1.381,0.2 0.434,0.4 1,0.9 1.4,1.373 -0.48,0.477 -1.082,0.867 -1.785,1.124 -0.25,-0.744 -0.564,-1.49 -0.748,-2.252 -0.328,0.085 -0.65,0.179 -0.969,0.288 0.139,0.4 0.7,2.2 0.7,2.23 C 51.9,8.7 51.2,8.6 50.5,8.4 c 0.049,-0.531 0.168,-1.182 0.273,-1.688 -0.402,0.179 -0.795,0.374 -1.174,0.589 -0.037,0.241 -0.084,0.56 -0.104,0.7 -0.15,-0.075 -0.387,-0.221 -0.557,-0.333 -0.313,0.201 -0.617,0.413 -0.91,0.637 0.406,0.3 0.9,0.6 1.4,0.8 -0.086,1.6 0,3.3 0.3,4.875 -1.105,0.151 -2.16,0.238 -3.166,0.264 0.018,-1.962 0.488,-4.005 1.156,-5.655 -0.615,0.505 -1.182,1.063 -1.689,1.666 -0.301,1.224 -0.488,2.677 -0.502,3.995 -0.545,-0.012 -1.191,-0.06 -1.707,-0.11 -0.109,0.326 -0.205,0.657 -0.285,0.995 0.617,0.1 1.4,0.1 2,0.148 0.074,1.6 0.3,3.1 0.8,4.747 l -2.729,0.8 c 0.092,0.3 0.2,0.7 0.3,0.978 l 2.734,-0.803 c 0.539,1.5 1.2,2.9 2.1,4.136 -0.588,0.389 -1.104,0.863 -1.67,1.3 0.258,0.2 0.5,0.5 0.8,0.681 0.418,-0.351 0.965,-0.78 1.447,-1.104 0.912,1.2 2.1,2.4 3.2,3.4 0.742,0.2 1.5,0.3 2.3,0.41 -1.689,-1.058 -3.375,-2.593 -4.66,-4.334 0.842,-0.511 1.77,-1.01 2.783,-1.471 0.822,1.6 1.7,3 2.7,4.237 -0.295,0.463 -0.521,1.049 -0.664,1.582 0.35,0 0.7,0 1.1,0 0.082,-0.258 0.199,-0.577 0.309,-0.784 0.205,0.2 0.5,0.5 0.7,0.759 0.459,-0.026 0.912,-0.072 1.354,-0.139 -0.477,-0.436 -1.02,-0.976 -1.471,-1.501 0.469,-0.52 1.066,-0.956 1.777,-1.254 l 0.857,2.534 c 0.34,-0.08 0.672,-0.175 0.998,-0.277 l -0.869,-2.549 c 0.76,-0.154 1.516,-0.141 2.3,0.037 -0.053,0.65 -0.195,1.494 -0.316,2.119 0.4,-0.167 0.791,-0.351 1.166,-0.552 0.055,-0.385 0.115,-0.829 0.154,-1.216 0.33,0.2 0.6,0.4 0.9,0.577 0.91,-0.609 1.727,-1.323 2.43,-2.126 0.426,-1.522 0.625,-3.081 0.625,-4.657 0.654,0 1.3,0.1 1.8,0.114 0.094,-0.33 0.172,-0.666 0.236,-1.007 -0.67,-0.085 -1.373,-0.13 -2.121,-0.139 -0.092,-1.447 -0.361,-2.93 -0.816,-4.412 l 2.715,-0.791 C 68.796,14.3 68.7,14 68.6,13.659 Z m -3.699,1.072 -3.463,1.004 c -0.439,-1.248 -0.941,-2.436 -1.496,-3.563 1.051,-0.469 2.02,-0.973 2.904,-1.504 0.828,1.232 1.49,2.632 2.09,4.063 z m -3.274,5.577 c -1.193,0.203 -2.424,0.486 -3.666,0.831 L 56.915,18.115 60.74,17 c 0.353,1.1 0.66,2.2 0.86,3.308 z M 60.408,16.023 56.586,17.136 55.48,13.83 c 1.221,-0.368 2.383,-0.792 3.48,-1.244 0.536,1.114 1.04,2.214 1.44,3.437 z m -4.813,1.397 -3.805,1.103 c -0.387,-1.224 -0.693,-2.432 -0.914,-3.606 1.172,-0.198 2.379,-0.465 3.609,-0.801 z m 2.891,-5.756 c -1.051,0.434 -2.164,0.836 -3.338,1.188 L 53.947,9.262 C 54.767,8.959 55.484,8.512 56.064,7.948 56.923,9 57.7,10.3 58.5,11.664 Z m -5.535,-2.131 1.205,3.6 C 52.98,13.456 51.826,13.708 50.695,13.9 50.476,12.432 50.418,10.984 50.418,9.503 50.865,9.6 52.1,9.7 53,9.533 Z m -3.102,5.541 c 0.232,1.2 0.6,2.5 1,3.733 L 47.39,19.809 C 46.923,18.304 46.663,16.805 46.595,15.35 47.589,15.3 48.7,15.2 49.8,15.074 Z m -0.246,9.585 c -0.771,-1.171 -1.426,-2.468 -1.938,-3.865 l 3.461,-1 c 0.404,1.2 0.9,2.3 1.4,3.323 C 51.455,23.6 50.5,24.1 49.6,24.659 Z m 2.516,-5.155 3.801,-1.104 1.02,3 c -1.225,0.378 -2.395,0.801 -3.486,1.272 C 52.964,21.7 52.5,20.6 52.1,19.504 Z m 4.25,7.896 c -0.871,-1.119 -1.705,-2.399 -2.455,-3.819 1.053,-0.442 2.174,-0.852 3.346,-1.216 l 1.211,3.61 C 57.648,26.3 56.9,26.8 56.4,27.4 Z m 5.736,-1.73 c -0.891,-0.174 -1.764,-0.146 -2.648,0.034 L 58.26,22.122 c 1.193,-0.339 2.371,-0.601 3.52,-0.802 0.229,1.48 0.32,4.18 0.32,4.35 z m -0.375,-8.955 3.455,-1.002 c 0.428,1.4 0.7,2.8 0.8,4.1 -1.064,0.03 -2.186,0.123 -3.354,0.293 C 62.39,19 62.1,17.9 61.7,16.715 Z m 3.082,10.27 c -0.5,-0.425 -1.07,-0.761 -1.688,-0.999 0.059,-1.618 -0.072,-3.229 -0.326,-4.828 1.115,-0.153 2.189,-0.245 3.207,-0.274 0,2.116 -0.405,4.316 -1.205,6.101 z"
       id="path97" /><path
       fill="#f5bd47"
       d="m 59.57,34.689 h -2.027 v -3.333 c 1.621,-0.144 3.24,-0.53 4.779,-1.196 l -0.375,-1.389 c -1.691,0.726 -3.605,1.136 -5.672,1.136 -7.539,0 -13.084,-5.444 -13.084,-12.158 0,-6.525 5.748,-11.848 12.492,-12.144 L 55.298,4.178 c -2.35,0.155 -4.701,0.841 -6.84,2.089 -6.879,4.053 -8.975,12.478 -4.674,18.837 2.484,3.7 6.6,5.8 10.9,6.25 v 3.333 H 52.63 v 1.929 h -8.039 v 3.449 H 67.607 V 36.616 H 59.57 Z"
       id="path99" /></g></svg>