<?xml version="1.0" encoding="UTF-8" standalone="no"?>
<svg
   xmlns:dc="http://purl.org/dc/elements/1.1/"
   xmlns:cc="http://creativecommons.org/ns#"
   xmlns:rdf="http://www.w3.org/1999/02/22-rdf-syntax-ns#"
   xmlns:svg="http://www.w3.org/2000/svg"
   xmlns="http://www.w3.org/2000/svg"
   xmlns:sodipodi="http://sodipodi.sourceforge.net/DTD/sodipodi-0.dtd"
   xmlns:inkscape="http://www.inkscape.org/namespaces/inkscape"
   height="16pt"
   viewBox="0 1 16 16.03128"
   width="16pt"
   version="1.1"
   id="svg4"
   sodipodi:docname="casa.svg"
   inkscape:version="1.0.1 (3bc2e813f5, 2020-09-07)">
  <metadata
     id="metadata10">
    <rdf:RDF>
      <cc:Work
         rdf:about="">
        <dc:format>image/svg+xml</dc:format>
        <dc:type
           rdf:resource="http://purl.org/dc/dcmitype/StillImage" />
        <dc:title></dc:title>
      </cc:Work>
    </rdf:RDF>
  </metadata>
  <defs
     id="defs8" />
  <sodipodi:namedview
     pagecolor="#ffffff"
     bordercolor="#666666"
     borderopacity="1"
     objecttolerance="10"
     gridtolerance="10"
     guidetolerance="10"
     inkscape:pageopacity="0"
     inkscape:pageshadow="2"
     inkscape:window-width="1600"
     inkscape:window-height="837"
     id="namedview6"
     showgrid="false"
     inkscape:zoom="5.1337949"
     inkscape:cx="80.877133"
     inkscape:cy="56.09477"
     inkscape:window-x="-8"
     inkscape:window-y="-8"
     inkscape:window-maximized="1"
     inkscape:current-layer="svg4"
     inkscape:document-rotation="0" />
  <path
     d="m 13.810179,8.1571526 c -3.68e-4,-2.777e-4 -6.52e-4,-6.295e-4 -9.22e-4,-9.257e-4 L 8.9041472,3.2517989 C 8.6950695,3.0426506 8.4170942,2.9275272 8.1214131,2.9275272 c -0.2956811,0 -0.5736564,0.1151234 -0.7828257,0.3242717 L 2.4360413,8.1537585 c -0.00165,0.00165 -0.00339,0.0034 -0.00495,0.00504 -0.4293478,0.4317811 -0.4286139,1.1323362 0.00211,1.5630168 0.1967843,0.1968562 0.4565948,0.3107867 0.7344782,0.3228037 0.011376,0.0011 0.022752,0.0016 0.034219,0.0016 h 0.1954083 v 3.609277 c 0,0.714315 0.5812708,1.295436 1.2956577,1.295436 h 1.9190378 c 0.1945826,0 0.3522855,-0.157779 0.3522855,-0.35225 v -2.829735 c 0,-0.325922 0.2652232,-0.591027 0.5911789,-0.591027 h 1.1319002 c 0.3259557,0 0.591087,0.265105 0.591087,0.591027 v 2.829742 c 0,0.194471 0.1577028,0.352249 0.3522854,0.352249 h 1.9190377 c 0.714478,0 1.295657,-0.58112 1.295657,-1.295435 v -3.609277 h 0.181281 c 0.295589,0 0.573564,-0.1151235 0.782825,-0.3243635 0.431183,-0.4313226 0.431367,-1.133162 6.53e-4,-1.5647599 z m -0.498887,1.0666565 c -0.07605,0.076046 -0.177152,0.1179672 -0.284581,0.1179672 h -0.533565 c -0.194583,0 -0.352285,0.1576867 -0.352285,0.3522496 v 3.9615271 c 0,0.325831 -0.265132,0.590936 -0.591087,0.590936 H 9.9830211 v -2.477492 c 0,-0.714314 -0.5811792,-1.295526 -1.2956578,-1.295526 H 7.5554632 c -0.7144789,0 -1.2957498,0.581212 -1.2957498,1.295526 v 2.477492 H 4.692961 c -0.3258638,0 -0.591087,-0.265105 -0.591087,-0.590936 V 9.6940259 c 0,-0.1945629 -0.1577028,-0.3522496 -0.3522854,-0.3522496 H 3.2251972 C 3.2196972,9.341406 3.2142802,9.3411468 3.2086842,9.3410357 3.1037325,9.3392057 3.0052945,9.2975547 2.9315347,9.223711 c -0.1568771,-0.1568614 -0.1568771,-0.4121508 0,-0.5691038 9.17e-5,0 9.17e-5,-9.16e-5 1.831e-4,-1.775e-4 L 2.931993,8.654152 7.8369247,3.7499021 c 0.075962,-0.076046 0.1769685,-0.1178752 0.2844888,-0.1178752 0.1074288,0 0.2084355,0.04183 0.2844888,0.1178752 l 4.9038297,4.9032438 c 7.24e-4,7.406e-4 0.0016,0.00146 0.0023,0.0022 0.156052,0.1571365 0.155777,0.4118755 -7.23e-4,0.5684615 z m 0,0"
     id="path2"
     style="fill:#004b70;fill-opacity:1;stroke-width:0.0234845" />
</svg>
